<?xml version="1.0" encoding="UTF-8"?>
<svg id="Botón" xmlns="http://www.w3.org/2000/svg" viewBox="0 0 1080 1080">
  <defs>
    <style>
      .cls-1 {
        fill: #fff;
        stroke: #36c2a1;
        stroke-miterlimit: 10;
        stroke-width: 5px;
      }

      .cls-2 {
        fill: #61254b;
      }

      .cls-3 {
        fill: #daffc1;
      }
    </style>
  </defs>
  <g id="Sombra">
    <rect class="cls-2" x="45.38" y="294.6" width="1018.96" height="547.1" rx="46.37" ry="46.37"/>
  </g>
  <g id="Botón-2" data-name="Botón">
    <rect class="cls-1" x="17.6" y="240.6" width="1022.48" height="556.83" rx="46.37" ry="46.37"/>
  </g>
  <g id="Brillos">
    <rect class="cls-3" x="728.01" y="285.73" width="68.61" height="46.44" rx="15.88" ry="15.88" transform="translate(1524.63 617.9) rotate(180)"/>
    <path class="cls-3" d="M823.62,312.21v-6.52c0-11.03,8.94-19.96,19.96-19.96h125.6c.84,0,1.67.07,2.47.19.44.07.88.07,1.32,0,.81-.13,1.63-.19,2.47-.19h4.05c11.02,0,19.95,8.93,19.95,19.95v100.96c0,11.02-8.93,19.95-19.95,19.95h0c-11.02,0-19.95-8.93-19.95-19.95v-70.43c0-2.23-1.81-4.04-4.04-4.04h-111.91c-11.02,0-19.95-8.93-19.95-19.95Z"/>
    <rect class="cls-3" x="256.55" y="719.16" width="68.61" height="46.44" rx="15.88" ry="15.88"/>
    <path class="cls-3" d="M229.55,739.11v6.52c0,11.03-8.94,19.96-19.96,19.96h-125.6c-.84,0-1.67-.07-2.47-.19-.44-.07-.88-.07-1.32,0-.81.13-1.63.19-2.47.19h-4.05c-11.02,0-19.95-8.93-19.95-19.95v-100.96c0-11.02,8.93-19.95,19.95-19.95h0c11.02,0,19.95,8.93,19.95,19.95v70.43c0,2.23,1.81,4.04,4.04,4.04h111.91c11.02,0,19.95,8.93,19.95,19.95Z"/>
  </g>
</svg>