<?xml version="1.0" encoding="UTF-8"?>
<svg id="Home" xmlns="http://www.w3.org/2000/svg" viewBox="0 0 1080 1080">
  <defs>
    <style>
      .cls-1 {
        fill: #fff;
        stroke: #36c2a1;
        stroke-miterlimit: 10;
        stroke-width: 5px;
      }

      .cls-2 {
        fill: #61254b;
      }

      .cls-3 {
        fill: #daffc1;
      }
    </style>
  </defs>
  <g id="Sombra">
    <path class="cls-2" d="M1031.45,442.06h-74.6c-5.43,0-9.73,4.45-9.72,9.88,0,.03,0,.07,0,.1v525.06c0,34.4-28.15,62.55-62.55,62.55h-179.34c-5.37,0-9.72-4.35-9.72-9.72v-329.6c0-11.95-9.77-21.72-21.72-21.72h-180.78c-11.95,0-21.72,9.77-21.72,21.72v329.6c0,5.37-4.35,9.72-9.72,9.72h-156.25c-34.4,0-62.55-28.15-62.55-62.55V452.04s0-.07,0-.1c.01-5.43-4.29-9.88-9.72-9.88h-95.34c-17.93,0-25.51-22.85-11.14-33.56L573.45,75.3c6.6-4.93,15.66-4.93,22.27,0l446.86,333.2c14.38,10.71,6.8,33.56-11.13,33.56Z"/>
  </g>
  <g id="Casa">
    <path class="cls-1" d="M973.54,417.02h-74.6c-5.43,0-9.73,4.45-9.72,9.88,0,.03,0,.07,0,.1v525.06c0,34.4-28.15,62.55-62.55,62.55h-179.34c-5.37,0-9.72-4.35-9.72-9.72v-329.6c0-11.95-9.77-21.72-21.72-21.72h-180.78c-11.95,0-21.72,9.77-21.72,21.72v329.6c0,5.37-4.35,9.72-9.72,9.72h-156.25c-34.4,0-62.55-28.15-62.55-62.55V427s0-.07,0-.1c.01-5.43-4.29-9.88-9.72-9.88h-95.34c-17.93,0-25.51-22.85-11.14-33.56L515.54,50.26c6.6-4.93,15.66-4.93,22.27,0l446.86,333.2c14.38,10.71,6.8,33.56-11.13,33.56Z"/>
  </g>
  <g id="Brillo">
    <rect class="cls-3" x="797.65" y="719.11" width="68.61" height="46.44" rx="15.88" ry="15.88" transform="translate(89.63 1574.28) rotate(-90)"/>
    <path class="cls-3" d="M828.69,803.64h6.52c11.03,0,19.96,8.94,19.96,19.96v125.6c0,.84-.07,1.67-.19,2.47-.07.44-.07.88,0,1.32.13.81.19,1.63.19,2.47v4.05c0,11.02-8.93,19.95-19.96,19.95h-100.96c-11.02,0-19.95-8.93-19.95-19.96h0c0-11.02,8.93-19.96,19.96-19.96h70.43c2.23,0,4.04-1.81,4.04-4.04v-111.91c0-11.02,8.93-19.95,19.95-19.95Z"/>
    <rect class="cls-3" x="320.91" y="206.41" width="68.61" height="46.44" rx="15.88" ry="15.88" transform="translate(777.64 207.97) rotate(144.18)"/>
    <path class="cls-3" d="M643.24,184.25l-5.14,6.91c-5.24,7.03-15.19,8.49-22.23,3.25l-86.52-64.41-95.27,68.74c-7.11,5.13-17.04,3.53-22.17-3.59l-8.59-11.9c-5.13-7.11-3.52-17.04,3.59-22.17l106.08-76.55c2.26-1.63,4.81-2.58,7.4-2.89,4.79-1.65,10.29-.98,14.66,2.27l104.93,78.12c7.04,5.24,8.49,15.19,3.26,22.22Z"/>
  </g>
</svg>