<?xml version="1.0" encoding="UTF-8"?>
<svg id="FlechaIz" xmlns="http://www.w3.org/2000/svg" viewBox="0 0 1080 1080">
  <defs>
    <style>
      .cls-1 {
        fill: #fff;
        stroke: #36c2a1;
        stroke-miterlimit: 10;
        stroke-width: 5px;
      }

      .cls-2 {
        fill: #61254b;
      }

      .cls-3 {
        fill: #daffc1;
      }
    </style>
  </defs>
  <path class="cls-2" d="M126.11,409.09l95.36,82.23,80.68,69.59,152.43,131.45c13.25,11.43,33.82,2.02,33.82-15.48v-166.65c1.11-.02,2.21-.02,3.32-.02,178.98,0,324.07,120.18,324.07,268.44,0,46.63-14.35,90.48-39.6,128.69-7.46,11.29-15.72,19-23.03,33.61-15.13,28.96-7.83,46.7,16.45,64.03,12.2,8.71,24.51,11.36,42.64,1.26,8.14-5.85,16.07-12.01,23.77-18.46h0c91.67-76.87,150.4-195.27,150.4-328.07,0-231.67-178.74-419.48-399.22-419.48-34.11,0-67.22,4.49-98.82,12.96V110.33c0-17.5-20.56-26.91-33.82-15.48L126.11,378.12c-9.46,8.16-9.46,22.81,0,30.97Z"/>
  <path class="cls-1" d="M93.48,378.68l95.36,82.23,80.68,69.59,152.43,131.45c13.25,11.43,33.82,2.02,33.82-15.48v-166.65c1.11-.02,2.21-.02,3.32-.02,178.98,0,324.07,120.18,324.07,268.44,0,46.63-14.35,90.48-39.6,128.69-7.46,11.29-15.72,19-23.03,33.61-15.13,28.96-7.83,46.7,16.45,64.03,12.2,8.71,24.51,11.36,42.64,1.26,8.14-5.85,16.07-12.01,23.77-18.46h0c91.67-76.87,150.4-195.27,150.4-328.07,0-231.67-178.74-419.48-399.22-419.48-34.11,0-67.22,4.49-98.82,12.96V79.92c0-17.5-20.56-26.91-33.82-15.48L93.48,347.71c-9.46,8.16-9.46,22.81,0,30.97Z"/>
  <path class="cls-3" d="M566.33,250.65c-4.75,10.13,2.81,23.29,22.29,28.17,3.21.81,13.75,1.25,16.8,1.65,2.57.06,5.17.17,7.79.35,15.98,1.05,32.91,4.25,49.98,9.77,41.82,13.53,74.75,37.87,90.85,63.98,2.08,3.37,3.88,6.77,5.37,10.18,6.99,13.37,15.39,16.62,18,17.78,18.44,8.22,35.06,1.82,38.37-13.5.39-1.79.55-2.44.21-4.12-.29-1.46-.8-2.91-1.5-4.33-1.23-2.49-2.57-4.97-4.01-7.44-23.11-39.68-72.66-76.95-136-97.45-23.44-7.59-46.7-12.2-68.83-14.07-7.31-.61-14.51-.93-21.54-.95-7.31.1-15.59,5.31-17.78,9.97Z"/>
  <rect class="cls-3" x="491.32" y="242.06" width="61.84" height="41.85" rx="15.88" ry="15.88" transform="translate(-22.25 49.84) rotate(-5.35)"/>
  <path class="cls-3" d="M123.1,374.04c.15.16.29.31.45.46.42.52.89,1.02,1.4,1.5l29.4,27.46c6.41,5.99,16.46,5.65,22.45-.76l1.82-1.94c5.99-6.42,5.65-16.46-.76-22.45l-17.56-16.4,67.38-60.72c6.52-5.87,7.04-15.92,1.17-22.43-3.5-3.88-8.46-5.64-13.29-5.18-3.29.31-6.51,1.64-9.15,4.02l-82.13,74.01c-6.51,5.86-7.04,15.91-1.16,22.43Z"/>
  <rect class="cls-3" x="233.31" y="241.37" width="36.48" height="34.42" rx="15.15" ry="15.15" transform="translate(-108.23 232.12) rotate(-41.58)"/>
</svg>