<?xml version="1.0" encoding="UTF-8"?>
<svg id="ZoomIn" xmlns="http://www.w3.org/2000/svg" viewBox="0 0 1080 1080">
  <defs>
    <style>
      .cls-1 {
        fill: #36c2a1;
      }

      .cls-2 {
        stroke: #36c2a1;
      }

      .cls-2, .cls-3 {
        fill: #fff;
        stroke-miterlimit: 10;
        stroke-width: 5px;
      }

      .cls-4 {
        fill: #61254b;
      }

      .cls-3 {
        stroke: #61254b;
      }

      .cls-5 {
        fill: #daffc1;
      }
    </style>
  </defs>
  <path id="Sombra" class="cls-4" d="M1037.82,912.19l-97.93,102.97c-9.32,9.8-25.1,9.22-33.69-1.22l-284.17-345.85c-1.45-1.76-2.59-3.68-3.41-5.69-.05-.13-.21-.17-.31-.08-44.64,35.7-99.44,59.19-159.38,65.44-190.16,19.83-352.95-138.6-338.26-329.23,11.6-150.54,131.79-270.66,282.35-282.16,191.07-14.59,349.54,149.04,328.88,339.56-6.25,57.6-28.42,110.42-62.04,153.96-.09.11-.04.27.09.31,2.07.73,4.06,1.77,5.91,3.13l359.02,265.26c10.88,8.04,12.26,23.8,2.93,33.6Z"/>
  <path id="Lupa" class="cls-2" d="M997.94,903.89l-97.93,102.97c-9.32,9.8-25.1,9.22-33.69-1.22l-284.17-345.85c-1.45-1.76-2.59-3.68-3.41-5.69-.05-.13-.21-.17-.31-.08-44.64,35.7-99.44,59.19-159.38,65.44-190.16,19.83-352.95-138.6-338.26-329.23C92.39,239.7,212.57,119.57,363.14,108.07c191.07-14.59,349.54,149.04,328.88,339.56-6.25,57.6-28.42,110.42-62.04,153.96-.09.11-.04.27.09.31,2.07.73,4.06,1.77,5.91,3.13l359.02,265.26c10.88,8.04,12.26,23.8,2.93,33.6Z"/>
  <circle id="Lente" class="cls-1" cx="386.85" cy="408.28" r="251.8"/>
  <path id="Más" class="cls-3" d="M526.28,386.95v42.66c0,14.53-11.89,26.41-26.41,26.41h-50.74c-7.96,0-14.41,6.45-14.41,14.41v50.75c0,14.53-11.89,26.41-26.41,26.41h-42.66c-14.53,0-26.41-11.89-26.41-26.41v-50.75c0-7.96-6.45-14.41-14.41-14.41h-50.75c-14.53,0-26.41-11.89-26.41-26.41v-42.66c0-14.53,11.89-26.41,26.41-26.41h50.75c7.96,0,14.41-6.45,14.41-14.41v-50.74c0-14.53,11.89-26.41,26.41-26.41h42.66c14.53,0,26.41,11.89,26.41,26.41v50.74c0,7.96,6.45,14.41,14.41,14.41h50.74c14.53,0,26.41,11.89,26.41,26.41Z"/>
  <g id="Brillo">
    <path class="cls-5" d="M473.91,210.73c1.17,12.09-8.22,23.18-24.95,21.72-2.76-.24-11.24-3.31-13.76-3.93-2.05-.8-4.15-1.56-6.28-2.25-12.96-4.27-27.23-6.63-42.21-6.63-36.69,0-69.11,14.17-88.61,35.83-2.52,2.8-4.82,5.72-6.89,8.75-8.99,11.51-16.5,12.06-18.87,12.39-16.76,2.33-28.31-9.87-27.01-26.85.15-1.99.19-2.71.89-4.34.61-1.41,1.39-2.75,2.31-3.98,1.62-2.16,3.32-4.28,5.1-6.36,28.55-33.36,77.49-55.36,133.07-55.36,20.57,0,40.23,3.01,58.28,8.5,5.97,1.82,11.76,3.9,17.35,6.24,5.78,2.55,11.02,10.72,11.56,16.28Z"/>
    <rect class="cls-5" x="482.62" y="220.82" width="61.83" height="41.85" rx="15.88" ry="15.88" transform="translate(837.4 707.88) rotate(-150)"/>
    <path class="cls-5" d="M978.52,902.61c-.13.17-.26.34-.4.5-.37.56-.79,1.1-1.25,1.62l-26.7,30.08c-5.82,6.56-15.86,7.16-22.42,1.34l-1.99-1.76c-6.56-5.83-7.16-15.86-1.34-22.42l15.95-17.97-72.73-54.17c-7.04-5.24-8.49-15.19-3.26-22.22,3.12-4.19,7.9-6.4,12.75-6.4,3.3,0,6.63,1.03,9.48,3.15l88.66,66.03c7.03,5.23,8.49,15.18,3.25,22.22Z"/>
    <rect class="cls-5" x="823.57" y="783.58" width="36.48" height="34.42" rx="15.15" ry="15.15" transform="translate(939.87 1958.5) rotate(-138.41)"/>
  </g>
</svg>