<?xml version="1.0" encoding="UTF-8"?>
<svg id="FlechaDr" xmlns="http://www.w3.org/2000/svg" viewBox="0 0 1080 1080">
  <defs>
    <style>
      .cls-1 {
        fill: #fff;
        stroke: #36c2a1;
        stroke-miterlimit: 10;
        stroke-width: 5px;
      }

      .cls-2 {
        fill: #61254b;
      }

      .cls-3 {
        fill: #daffc1;
      }
    </style>
  </defs>
  <g id="Sombra">
    <path class="cls-2" d="M1038.39,415.98l-95.34,82.23-80.66,69.59-152.4,131.45c-13.25,11.43-33.81,2.02-33.81-15.48v-166.65c-1.11-.02-2.21-.02-3.32-.02-178.94,0-324,120.18-324,268.44,0,46.63,14.35,90.48,39.59,128.69,7.46,11.29,15.72,19,23.02,33.61,15.13,28.96,7.83,46.7-16.45,64.03-12.2,8.71-24.51,11.36-42.63,1.26-8.14-5.85-16.07-12.01-23.76-18.46h0c-91.65-76.87-150.37-195.27-150.37-328.07,0-231.67,178.7-419.48,399.13-419.48,34.1,0,67.2,4.49,98.8,12.96V117.22c0-17.5,20.56-26.91,33.81-15.48l328.4,283.27c9.46,8.16,9.46,22.81,0,30.97Z"/>
  </g>
  <g id="Flecha">
    <path class="cls-1" d="M999.97,402.79l-95.34,82.23-80.66,69.59-152.4,131.45c-13.25,11.43-33.81,2.02-33.81-15.48v-166.65c-1.11-.02-2.21-.02-3.32-.02-178.94,0-324,120.18-324,268.44,0,46.63,14.35,90.48,39.59,128.69,7.46,11.29,15.72,19,23.02,33.61,15.13,28.96,7.83,46.7-16.45,64.03-12.2,8.71-24.51,11.36-42.63,1.26-8.14-5.85-16.07-12.01-23.76-18.46h0c-91.65-76.87-150.37-195.27-150.37-328.07,0-231.67,178.7-419.48,399.13-419.48,34.1,0,67.2,4.49,98.8,12.96V104.03c0-17.5,20.56-26.91,33.81-15.48l328.4,283.27c9.46,8.16,9.46,22.81,0,30.97Z"/>
  </g>
  <g id="Brillo">
    <path class="cls-3" d="M527.23,274.76c4.75,10.13-2.81,23.29-22.28,28.17-3.21.81-13.75,1.25-16.79,1.65-2.57.06-5.17.17-7.79.35-15.98,1.05-32.9,4.25-49.97,9.77-41.81,13.53-74.74,37.87-90.83,63.98-2.08,3.37-3.87,6.77-5.37,10.18-6.98,13.37-15.39,16.62-17.99,17.78-18.44,8.22-35.05,1.82-38.37-13.5-.39-1.79-.55-2.44-.21-4.12.29-1.46.8-2.91,1.5-4.33,1.23-2.49,2.57-4.97,4.01-7.44,23.1-39.68,72.64-76.95,135.97-97.45,23.44-7.59,46.69-12.2,68.82-14.07,7.31-.61,14.5-.93,21.54-.95,7.3.1,15.59,5.31,17.77,9.97Z"/>
    <rect class="cls-3" x="540.41" y="266.18" width="61.83" height="41.85" rx="15.88" ry="15.88" transform="translate(1113.37 626.24) rotate(-174.65)"/>
    <path class="cls-3" d="M970.36,398.15c-.15.16-.29.31-.44.46-.42.52-.89,1.02-1.4,1.5l-29.39,27.46c-6.41,5.99-16.46,5.65-22.45-.76l-1.82-1.94c-5.99-6.42-5.65-16.46.76-22.45l17.56-16.4-67.36-60.72c-6.52-5.87-7.04-15.92-1.17-22.43,3.5-3.88,8.46-5.64,13.29-5.18,3.29.31,6.51,1.64,9.14,4.02l82.11,74.01c6.51,5.86,7.04,15.91,1.16,22.43Z"/>
    <rect class="cls-3" x="823.7" y="265.49" width="36.48" height="34.42" rx="15.15" ry="15.15" transform="translate(1284 1052.99) rotate(-138.41)"/>
  </g>
</svg>