<?xml version="1.0" encoding="UTF-8"?>
<svg id="Capas" xmlns="http://www.w3.org/2000/svg" viewBox="0 0 1080 1080">
  <defs>
    <style>
      .cls-1 {
        fill: #fff;
      }

      .cls-1, .cls-2, .cls-3 {
        stroke: #36c2a1;
        stroke-miterlimit: 10;
        stroke-width: 5px;
      }

      .cls-2 {
        fill: #e3fcd6;
      }

      .cls-4 {
        fill: #61254b;
      }

      .cls-3 {
        fill: #d4ffc0;
      }

      .cls-5 {
        fill: #daffc1;
      }
    </style>
  </defs>
  <g id="Sombra">
    <path class="cls-4" d="M1017.92,280.86l-99.4,169.63h65.47c18.05,0,29.19,20.23,19.89,36.11l-92.52,157.87h60.03c18.05,0,29.19,20.23,19.88,36.11l-134.42,229.39c-4.2,7.16-11.74,11.54-19.89,11.54H160.56c-18.05,0-29.18-20.23-19.88-36.11l92.51-157.87h-60.02c-18.05,0-29.19-20.23-19.88-36.11l99.4-169.63h-65.47c-18.05,0-29.19-20.23-19.89-36.11l134.43-229.39c4.19-7.16,11.74-11.54,19.88-11.54h676.4c18.05,0,29.19,20.23,19.88,36.11Z"/>
  </g>
  <g id="Capa3">
    <path class="cls-3" d="M813.14,872.5H98.11c-19.08,0-30.86-20.23-21.02-36.11l142.1-229.39c4.44-7.16,12.41-11.54,21.02-11.54h715.03c19.08,0,30.86,20.23,21.02,36.11l-142.1,229.39c-4.44,7.16-12.41,11.54-21.02,11.54Z"/>
  </g>
  <g id="Capa2">
    <path class="cls-2" d="M826.46,678.52H111.44c-19.08,0-30.86-20.23-21.02-36.11l142.1-229.39c4.44-7.16,12.41-11.54,21.02-11.54h715.03c19.08,0,30.86,20.23,21.02,36.11l-142.1,229.39c-4.44,7.16-12.41,11.54-21.02,11.54Z"/>
  </g>
  <g id="Capa1">
    <path class="cls-1" d="M841.31,472.78H126.29c-19.08,0-30.86-20.23-21.02-36.11l142.1-229.39c4.44-7.16,12.41-11.54,21.02-11.54h715.03c19.08,0,30.86,20.23,21.02,36.11l-142.1,229.39c-4.44,7.16-12.41,11.54-21.02,11.54Z"/>
  </g>
  <g id="Brillo">
    <rect class="cls-5" x="695.72" y="219.3" width="68.61" height="46.44" rx="15.88" ry="15.88" transform="translate(1460.05 485.05) rotate(180)"/>
    <path class="cls-5" d="M961.39,244.79l-74.96,117.64c-4.72,7.4-14.53,9.58-21.93,4.86l-1.74-1.11c-7.4-4.71-9.58-14.53-4.86-21.92l43.98-69.03c2.62-4.11-.33-9.49-5.21-9.49h-91.97c-12.18,0-22.05-9.87-22.05-22.05v-8.5c0-8.78,7.11-15.89,15.88-15.89h146.65c3.26-.23,6.63.56,9.61,2.45l1.74,1.11c7.39,4.71,9.57,14.53,4.86,21.93Z"/>
    <rect class="cls-5" x="336.88" y="402.95" width="68.61" height="46.44" rx="15.88" ry="15.88"/>
    <path class="cls-5" d="M139.81,423.91l74.96-117.64c4.72-7.4,14.53-9.58,21.93-4.86l1.74,1.11c7.4,4.71,9.58,14.53,4.86,21.92l-43.98,69.03c-2.62,4.11.33,9.49,5.21,9.49h91.97c12.18,0,22.05,9.87,22.05,22.05v8.5c0,8.78-7.11,15.89-15.88,15.89h-146.65c-3.26.23-6.63-.56-9.61-2.45l-1.74-1.11c-7.39-4.71-9.57-14.53-4.86-21.93Z"/>
  </g>
</svg>